<?xml version="1.0" encoding="UTF-8" standalone="no"?>
<!DOCTYPE svg PUBLIC "-//W3C//DTD SVG 1.1//EN" "http://www.w3.org/Graphics/SVG/1.1/DTD/svg11.dtd">
<svg width="100%" height="100%" viewBox="0 0 2048 2048" version="1.1" xmlns="http://www.w3.org/2000/svg" xmlns:xlink="http://www.w3.org/1999/xlink" xml:space="preserve" xmlns:serif="http://www.serif.com/" style="fill-rule:evenodd;clip-rule:evenodd;stroke-linejoin:round;stroke-miterlimit:2;">
    <g transform="matrix(1,0,0,1,-3734,0)">
        <g id="Icon" transform="matrix(0.700018,0,0,1,1650.99909,0)">
            <rect x="2975.638" y="0" width="2925.638" height="2048" style="fill:none;"/>
            <g id="Trans">
            </g>
            <g transform="matrix(1.428534,0,0,-1,3739.337481,2035.216691)">
                <path d="M9.278,311.049L-33.467,266.365L-324.196,2022.376L139.047,1879.295L148.183,1824.115C151.059,1823.307 159.064,1820.893 168.367,1818.015L189.492,1811.48L193.883,1784.898L198.277,1758.316L208.262,1755.132C213.75,1753.382 223.426,1750.355 229.758,1748.402L241.273,1744.851L245.758,1718.168L250.246,1691.488L271.246,1685.027C282.793,1681.476 292.43,1678.402 292.652,1678.199C292.879,1677.996 295.035,1666.031 297.449,1651.613C299.859,1637.191 301.98,1625.246 302.16,1625.066C302.34,1624.882 311.805,1621.871 323.191,1618.367C334.578,1614.863 344.121,1611.773 344.395,1611.496C344.977,1610.918 389.707,1341.3 389.719,1338.316C389.727,1336.054 365.875,1310.488 365.793,1312.672C365.734,1314.265 320.98,1585.367 320.289,1588.316C319.949,1589.769 318.145,1590.804 313.664,1592.113C310.277,1593.101 307.395,1593.777 307.254,1593.613C307.117,1593.449 317.934,1527.422 331.297,1446.882L355.594,1300.453L343.918,1288.234C337.5,1281.515 331.969,1276.308 331.629,1276.668C331.293,1277.023 316.902,1362.695 299.656,1467.047L268.293,1656.777L262.27,1658.59C257.875,1659.914 256.164,1660.082 255.941,1659.222C255.777,1658.57 270.297,1569.519 288.207,1461.328L320.773,1264.617L314.836,1257.964C313.9,1256.916 312.791,1255.705 311.606,1254.433L733.662,1695.636L1196.905,1552.555L18.647,320.843C21.591,323.854 23.596,325.814 23.766,325.816C24.055,325.816 26.766,310.851 29.793,292.566C32.82,274.277 35.562,259.316 35.887,259.316C36.316,259.316 1176.66,1450.972 1193.379,1468.886L1195.777,1471.461L1166.762,1480.386C1150.805,1485.297 1137.746,1489.652 1137.746,1490.066C1137.746,1490.48 1142.395,1495.625 1148.078,1501.496L1158.406,1512.172L1201.828,1498.828C1225.707,1491.492 1245.586,1485.195 1246.004,1484.843C1246.422,1484.488 1238.656,1475.679 1228.754,1465.269C1218.848,1454.859 1210.75,1446.109 1210.754,1445.828C1210.762,1445.547 1230.449,1439.281 1254.504,1431.906C1278.562,1424.535 1298.414,1418.363 1298.625,1418.195C1298.836,1418.023 1290.656,1409.211 1280.453,1398.605C1270.25,1388 1262,1379.226 1262.117,1379.105C1262.238,1378.988 1282.082,1372.793 1306.219,1365.34C1330.355,1357.886 1350.219,1351.675 1350.355,1351.539C1350.488,1351.402 1342.234,1342.57 1332.004,1331.914L1313.406,1312.539L1346.824,1302.187C1365.207,1296.496 1385.082,1290.39 1390.996,1288.617C1396.906,1286.843 1401.746,1285.105 1401.746,1284.75C1401.746,1283.992 174.035,0.433 172.953,0.058C172.547,-0.078 168.441,22.531 163.824,50.308C159.207,78.09 155.164,100.808 154.84,100.8C154.512,100.793 146.82,92.98 137.746,83.437C125.086,70.125 121.082,66.461 120.543,67.699C120.16,68.59 116.203,91.343 111.754,118.269C107.305,145.195 103.527,167.363 103.359,167.535C103.188,167.703 95.496,159.945 86.266,150.293C77.035,140.64 69.289,132.937 69.055,133.172C68.754,133.468 51.965,231.894 51.762,234.543C51.754,234.664 43.98,226.656 34.496,216.746C22.133,203.832 17.141,199.218 16.883,200.468C16.684,201.429 12.805,224.496 8.262,251.726L0,301.238L9.278,311.049ZM153.235,1793.601L252.696,1192.85L304.933,1247.457C304.196,1246.708 303.503,1246.015 302.883,1245.406C297.129,1239.757 296.84,1239.601 296.309,1241.906C296,1243.23 277.969,1351.847 256.238,1483.273C234.504,1614.703 216.391,1722.535 215.984,1722.902C214.812,1723.957 204.668,1727.07 204.137,1726.539C203.871,1726.273 222.125,1614.515 244.699,1478.187C267.277,1341.859 285.723,1229.64 285.695,1228.816C285.637,1227.093 261.766,1201.754 261.754,1203.398C261.738,1205.363 165.816,1784.25 165.02,1787.179C164.367,1789.59 163.324,1790.328 158.41,1791.847C156.326,1792.491 154.4,1793.148 153.235,1793.601ZM720.102,732.597C1038.082,1064.992 1298.367,1337.289 1298.516,1337.699C1298.664,1338.109 1285.613,1342.531 1269.516,1347.527L1240.246,1356.605L1237.129,1353.461C1232.598,1348.886 132.672,198.644 129.961,195.64L127.676,193.113L133.211,160.019C136.254,141.816 138.746,126.621 138.746,126.246C138.746,125.875 139.469,126.172 140.352,126.906C141.238,127.64 402.125,400.203 720.102,732.597ZM771.141,665.269C1150.941,1062.32 1350.332,1271.461 1349.504,1271.914C1348.812,1272.297 1336.32,1276.265 1321.746,1280.738C1307.168,1285.207 1294.488,1289.101 1293.562,1289.386C1292.324,1289.769 1145.719,1137.093 741.168,714.109C438.281,397.422 187.973,135.75 184.934,132.617L179.406,126.914L184.66,95.117C190.016,62.687 190.781,58.496 191.25,59.019C191.398,59.179 452.348,331.996 771.141,665.269ZM673.715,804.664C988.992,1134.304 1246.566,1404.375 1246.098,1404.824C1245.629,1405.269 1232.473,1409.55 1216.863,1414.336L1188.484,1423.035L1181.746,1416.175C1178.039,1412.402 931.891,1155.066 634.742,844.316C337.598,533.566 90.277,275.039 85.148,269.816L75.816,260.316L81.516,226.058L87.215,191.804L93.848,198.558C97.496,202.273 358.438,475.023 673.715,804.664Z" style="fill:url(#_Linear1);"/>
            </g>
        </g>
    </g>
    <defs>
        <linearGradient id="_Linear1" x1="0" y1="0" x2="1" y2="0" gradientUnits="userSpaceOnUse" gradientTransform="matrix(885,-2048,-2048,-885,-447.603387,2035.216691)"><stop offset="0" style="stop-color:rgb(255,216,0);stop-opacity:1"/><stop offset="1" style="stop-color:rgb(255,178,0);stop-opacity:1"/></linearGradient>
    </defs>
</svg>
